<?xml version="1.0" encoding="utf-8"?>
<!-- Generator: Adobe Illustrator 26.0.1, SVG Export Plug-In . SVG Version: 6.00 Build 0)  -->
<svg version="1.1" id="Layer_1" xmlns="http://www.w3.org/2000/svg" xmlns:xlink="http://www.w3.org/1999/xlink" x="0px" y="0px"
	 viewBox="0 0 1148.57 812.89" style="enable-background:new 0 0 1148.57 812.89;" xml:space="preserve">
<style type="text/css">
	.st0{fill:#F2F2F2;}
	.st1{fill:#E6E6E6;}
	.st2{fill:#CCCCCC;}
	.st3{fill:#0183BD;}
</style>
<g>
	<g>
		<path d="M148.39,601.43l-20.57-25.73v25.73h-7.07v-51.98h7.07v24.49l20.65-24.49h8.8l-22.04,25.09l22.79,26.89H148.39z"/>
		<path d="M194.51,582.47h-25.05c-0.23,9.35,3.81,14.03,12.11,14.03c3.84,0,7.49-0.74,10.95-2.22l0.98,5.45
			c-3.96,1.58-8.38,2.37-13.24,2.37c-11.96,0-17.94-6.54-17.94-19.63c0-5.84,1.52-10.61,4.55-14.29c3.16-3.81,7.4-5.72,12.71-5.72
			c5.06,0,8.93,1.54,11.58,4.63c2.38,2.78,3.57,6.48,3.57,11.1C194.73,579.51,194.66,580.94,194.51,582.47z M187.66,577.55
			c0.08-3.08-0.66-5.5-2.22-7.26c-1.5-1.73-3.62-2.6-6.36-2.6c-5.42,0-8.56,3.29-9.44,9.85H187.66z"/>
		<path d="M218.96,604.67c-2.28,6.12-4.79,10.39-7.52,12.83c-2.66,2.38-6.16,3.57-10.49,3.57c-1.33,0-2.82-0.15-4.48-0.45l0.75-6.17
			c1.33,0.4,2.87,0.6,4.63,0.6c4.36,0,7.74-3.15,10.12-9.44l1.54-4.17l-14.48-38.29h7.82l7.26,19.9c0.83,2.31,1.81,5.45,2.93,9.44
			h0.15c0.68-2.61,1.93-6.53,3.76-11.77l6.17-17.57h7.56L218.96,604.67z"/>
		<path d="M287.9,576.98c-3.59,3.31-8.41,4.96-14.48,4.96c-1.68,0-3.27-0.08-4.78-0.23v19.71h-7.07v-51.98
			c4.56-0.23,8.9-0.34,13.01-0.34c5.92,0,10.52,1.38,13.8,4.14c3.18,2.68,4.78,6.37,4.78,11.06
			C293.16,569.55,291.41,573.77,287.9,576.98z M273.83,554.98c-1.86,0-3.59,0.05-5.19,0.15v20.5c1.65,0.3,3.46,0.45,5.42,0.45
			c7.85,0,11.77-3.62,11.77-10.87C285.83,558.39,281.83,554.98,273.83,554.98z"/>
		<path d="M331,582.47h-25.05c-0.23,9.35,3.81,14.03,12.11,14.03c3.84,0,7.49-0.74,10.95-2.22l0.98,5.45
			c-3.96,1.58-8.38,2.37-13.24,2.37c-11.96,0-17.94-6.54-17.94-19.63c0-5.84,1.52-10.61,4.55-14.29c3.16-3.81,7.4-5.72,12.71-5.72
			c5.06,0,8.93,1.54,11.58,4.63c2.38,2.78,3.57,6.48,3.57,11.1C331.23,579.51,331.15,580.94,331,582.47z M324.16,577.55
			c0.08-3.08-0.66-5.5-2.22-7.26c-1.5-1.73-3.62-2.6-6.36-2.6c-5.42,0-8.56,3.29-9.44,9.85H324.16z"/>
		<path d="M360.23,569.31c-7.97-1.43-11.96,4.14-11.96,16.7v15.42h-6.92v-38.29h6.69c0,3.16-0.28,6.19-0.83,9.1h0.15
			c2.18-7.2,6.57-10.46,13.16-9.78L360.23,569.31z"/>
		<path d="M390.96,551.22c-1.63-0.58-3.51-0.87-5.64-0.87c-5.24,0-7.86,3.29-7.86,9.85v2.93h10.64v5.42h-10.64v32.87h-6.92v-32.87
			h-7.86v-5.42h7.86v-2.86c0-10.36,4.9-15.53,14.71-15.53c2.13,0,4.24,0.23,6.32,0.68L390.96,551.22z"/>
		<path d="M422.85,596.2c-3.46,3.94-7.97,5.91-13.54,5.91c-11.46,0-17.19-6.49-17.19-19.48c0-5.77,1.67-10.53,5-14.29
			c3.46-3.91,8.01-5.87,13.65-5.87c5.22,0,9.3,1.47,12.26,4.4c3.26,3.29,4.89,8.21,4.89,14.78
			C427.93,587.51,426.24,592.37,422.85,596.2z M410.14,568.22c-3.01,0-5.5,1.1-7.48,3.31c-2.26,2.48-3.39,5.96-3.39,10.42
			c0,9.55,3.62,14.33,10.87,14.33c3.06,0,5.54-1.15,7.45-3.46c2.13-2.56,3.2-6.16,3.2-10.79
			C420.79,572.82,417.24,568.22,410.14,568.22z"/>
		<path d="M456.48,569.31c-7.97-1.43-11.96,4.14-11.96,16.7v15.42h-6.92v-38.29h6.69c0,3.16-0.28,6.19-0.83,9.1h0.15
			c2.18-7.2,6.57-10.46,13.16-9.78L456.48,569.31z"/>
		<path d="M512.64,601.43v-24.56c0-5.82-2.08-8.73-6.24-8.73c-2.88,0-5.35,1.35-7.41,4.06c-2.21,2.88-3.31,6.57-3.31,11.06v18.17
			h-6.85v-24.56c0-5.82-2.08-8.73-6.24-8.73c-2.96,0-5.48,1.42-7.56,4.25c-2.11,2.91-3.16,6.53-3.16,10.87v18.17h-6.92v-38.29h6.69
			c0,3.23-0.18,5.93-0.53,8.09l0.08,0.08c2.43-5.89,6.87-8.84,13.31-8.84c3.59,0,6.32,1.05,8.2,3.16c1.35,1.53,2.14,3.37,2.37,5.53
			c2.58-5.79,6.95-8.69,13.09-8.69c7.6,0,11.4,4.19,11.4,12.56v26.4H512.64z"/>
		<path d="M553.07,601.43c0-3.64,0.12-6.18,0.38-7.64h-0.15c-2.18,5.54-6.52,8.31-13.01,8.31c-3.16,0-5.73-0.94-7.71-2.82
			c-1.96-1.91-2.93-4.4-2.93-7.49c0-4.14,2.01-7.36,6.02-9.67c4.06-2.33,9.73-3.5,17-3.5v-1.77c0-3.13-0.59-5.4-1.77-6.81
			c-1.28-1.48-3.39-2.22-6.32-2.22c-3.71,0-7.56,0.93-11.55,2.78l-1.32-5.49c4.44-1.83,9.04-2.75,13.8-2.75
			c9.4,0,14.1,4.46,14.1,13.39v14.63c0,4.04,0.08,7.71,0.23,11.02H553.07z M552.66,583.49c-10.78,0-16.17,2.43-16.17,7.3
			c0,1.71,0.54,3.1,1.62,4.17c1.08,1.13,2.5,1.69,4.25,1.69c2.96,0,5.45-1.28,7.48-3.84c1.88-2.41,2.82-5.19,2.82-8.35V583.49z"/>
		<path d="M597.12,601.43v-24.64c0-5.77-2.18-8.65-6.54-8.65c-3.13,0-5.73,1.43-7.79,4.29c-2.06,2.86-3.08,6.42-3.08,10.68v18.32
			h-6.92v-38.29h6.7c0,3.33-0.2,6.03-0.6,8.09h0.15c2.48-5.84,6.97-8.76,13.46-8.76c7.7,0,11.55,4.08,11.55,12.22v26.74H597.12z"/>
		<path d="M641.84,599.96c-3.44,1.38-7.25,2.07-11.43,2.07c-11.18,0-16.78-6.16-16.78-18.47c0-6.37,1.57-11.42,4.7-15.16
			c3.29-3.91,7.94-5.87,13.96-5.87c3.43,0,6.56,0.54,9.37,1.62l-1.28,5.91c-2.93-1.13-5.84-1.69-8.73-1.69
			c-3.38,0-6.03,1.33-7.94,3.99c-1.83,2.56-2.75,5.98-2.75,10.27c0,8.95,3.61,13.43,10.83,13.43c3.33,0,6.32-0.63,8.95-1.88
			L641.84,599.96z"/>
		<path d="M679.3,582.47h-25.05c-0.23,9.35,3.81,14.03,12.11,14.03c3.84,0,7.49-0.74,10.95-2.22l0.98,5.45
			c-3.96,1.58-8.38,2.37-13.24,2.37c-11.96,0-17.94-6.54-17.94-19.63c0-5.84,1.52-10.61,4.55-14.29c3.16-3.81,7.4-5.72,12.71-5.72
			c5.06,0,8.93,1.54,11.58,4.63c2.38,2.78,3.57,6.48,3.57,11.1C679.53,579.51,679.45,580.94,679.3,582.47z M672.46,577.55
			c0.08-3.08-0.67-5.5-2.22-7.26c-1.5-1.73-3.62-2.6-6.36-2.6c-5.42,0-8.56,3.29-9.44,9.85H672.46z"/>
		<path d="M709.39,601.43v-51.98h7.07v51.98H709.39z"/>
		<path d="M753.89,601.43v-24.64c0-5.77-2.18-8.65-6.54-8.65c-3.13,0-5.73,1.43-7.79,4.29c-2.06,2.86-3.08,6.42-3.08,10.68v18.32
			h-6.92v-38.29h6.7c0,3.33-0.2,6.03-0.6,8.09h0.15c2.48-5.84,6.97-8.76,13.47-8.76c7.7,0,11.55,4.08,11.55,12.22v26.74H753.89z"/>
		<path d="M796.92,601.43c0-3.21,0.2-5.8,0.6-7.79l-0.15-0.08c-2.38,5.69-6.67,8.54-12.86,8.54c-4.61,0-8.14-1.6-10.57-4.81
			c-2.36-3.11-3.54-7.51-3.54-13.2c0-6.67,1.79-11.92,5.38-15.76c3.54-3.81,8.34-5.72,14.41-5.72c1.75,0,3.91,0.13,6.47,0.38V545.2
			h6.96v56.23H796.92z M796.65,568.93c-2.41-0.58-4.66-0.87-6.77-0.87c-8.1,0-12.15,5.14-12.15,15.42c0,8.63,2.82,12.94,8.46,12.94
			c3.23,0,5.84-1.63,7.82-4.89c1.75-2.86,2.63-6.16,2.63-9.89V568.93z"/>
		<path d="M823.43,554.23c-0.9,0.85-1.99,1.28-3.27,1.28c-1.28,0-2.37-0.43-3.27-1.28c-0.9-0.85-1.35-1.91-1.35-3.16
			c0-1.28,0.45-2.36,1.35-3.23c0.9-0.88,1.99-1.32,3.27-1.32c1.28,0,2.37,0.44,3.27,1.32c0.9,0.88,1.35,1.96,1.35,3.23
			C824.79,552.3,824.34,553.35,823.43,554.23z M816.7,601.43v-38.29h6.92v38.29H816.7z"/>
		<path d="M861.5,599.96c-3.44,1.38-7.25,2.07-11.43,2.07c-11.18,0-16.78-6.16-16.78-18.47c0-6.37,1.57-11.42,4.7-15.16
			c3.29-3.91,7.94-5.87,13.96-5.87c3.43,0,6.56,0.54,9.37,1.62l-1.28,5.91c-2.93-1.13-5.84-1.69-8.73-1.69
			c-3.38,0-6.03,1.33-7.94,3.99c-1.83,2.56-2.75,5.98-2.75,10.27c0,8.95,3.61,13.43,10.83,13.43c3.33,0,6.32-0.63,8.95-1.88
			L861.5,599.96z"/>
		<path d="M890.61,601.43c0-3.64,0.12-6.18,0.38-7.64h-0.15c-2.18,5.54-6.52,8.31-13.01,8.31c-3.16,0-5.73-0.94-7.71-2.82
			c-1.96-1.91-2.93-4.4-2.93-7.49c0-4.14,2.01-7.36,6.02-9.67c4.06-2.33,9.73-3.5,17-3.5v-1.77c0-3.13-0.59-5.4-1.77-6.81
			c-1.28-1.48-3.38-2.22-6.32-2.22c-3.71,0-7.56,0.93-11.55,2.78l-1.32-5.49c4.44-1.83,9.04-2.75,13.8-2.75
			c9.4,0,14.11,4.46,14.11,13.39v14.63c0,4.04,0.08,7.71,0.23,11.02H890.61z M890.2,583.49c-10.78,0-16.17,2.43-16.17,7.3
			c0,1.71,0.54,3.1,1.62,4.17c1.08,1.13,2.49,1.69,4.25,1.69c2.96,0,5.45-1.28,7.49-3.84c1.88-2.41,2.82-5.19,2.82-8.35V583.49z"/>
		<path d="M929.8,601.21c-2.33,0.55-4.9,0.83-7.71,0.83c-3.86,0-6.54-0.88-8.05-2.63c-1.46-1.68-2.18-4.63-2.18-8.84v-22H904v-5.42
			h7.86v-12.41l6.92-1.92v14.33h10.72v5.42h-10.72v19.56c0,3.13,0.39,5.25,1.17,6.36c0.75,1.1,2.19,1.65,4.33,1.65
			c1.75,0,3.37-0.21,4.85-0.64L929.8,601.21z"/>
		<path d="M966.1,596.2c-3.46,3.94-7.97,5.91-13.54,5.91c-11.46,0-17.19-6.49-17.19-19.48c0-5.77,1.67-10.53,5-14.29
			c3.46-3.91,8.01-5.87,13.65-5.87c5.21,0,9.3,1.47,12.26,4.4c3.26,3.29,4.89,8.21,4.89,14.78
			C971.18,587.51,969.49,592.37,966.1,596.2z M953.39,568.22c-3.01,0-5.5,1.1-7.49,3.31c-2.26,2.48-3.38,5.96-3.38,10.42
			c0,9.55,3.62,14.33,10.87,14.33c3.06,0,5.54-1.15,7.45-3.46c2.13-2.56,3.2-6.16,3.2-10.79
			C964.03,572.82,960.48,568.22,953.39,568.22z"/>
		<path d="M999.73,569.31c-7.97-1.43-11.96,4.14-11.96,16.7v15.42h-6.92v-38.29h6.7c0,3.16-0.28,6.19-0.83,9.1h0.15
			c2.18-7.2,6.57-10.46,13.17-9.78L999.73,569.31z"/>
		<path d="M1026.17,598.65c-2.96,2.31-6.9,3.46-11.81,3.46c-3.36,0-6.19-0.33-8.5-0.98l0.64-6.17c2.51,1.03,5.33,1.54,8.46,1.54
			c2.48,0,4.49-0.53,6.02-1.58c1.53-1.05,2.29-2.48,2.29-4.29c0-1.88-0.93-3.33-2.78-4.36c-0.68-0.35-2.71-1.08-6.09-2.18
			c-2.81-0.88-4.85-1.91-6.13-3.08c-1.86-1.68-2.78-4.04-2.78-7.07c0-3.41,1.27-6.14,3.8-8.2c2.73-2.18,6.56-3.27,11.47-3.27
			c2.36,0,4.81,0.25,7.37,0.75l-0.53,5.72c-2.48-0.78-4.98-1.17-7.49-1.17c-4.99,0-7.48,1.82-7.48,5.45c0,1.86,0.94,3.31,2.82,4.36
			c0.7,0.4,2.75,1.15,6.13,2.26c5.97,1.98,8.95,5.33,8.95,10.04C1030.53,593.44,1029.08,596.37,1026.17,598.65z"/>
		<path d="M118.04,688.34c3.71,0,6.77,0.13,9.18,0.38c-2.68-1.13-4.02-3.36-4.02-6.7c0-3.31,1.15-6.02,3.46-8.12
			c2.71-2.51,6.62-3.76,11.74-3.76c2.08,0,4.26,0.19,6.54,0.56l-0.86,5.68c-2.18-0.4-4.31-0.6-6.39-0.6c-4.92,0-7.37,1.97-7.37,5.91
			c0,4.44,3.46,6.66,10.38,6.66h6.92v5.53h-29.56V688.34z"/>
		<path d="M161.07,639.56h7.07v54.31h-7.07V639.56z"/>
		<path d="M179.46,688.23h24.71c-0.1-7.1-1.66-12.69-4.66-16.78c-3.06-4.14-7.97-7.25-14.74-9.33l1.77-6.02
			c8.55,2.66,14.76,6.54,18.62,11.66c4.04,5.37,6.06,12.79,6.06,22.27v3.84h-31.75V688.23z"/>
		<path d="M238.78,681.31h-7.15l-12.26-41.22l7.07-0.98L238.78,681.31z M222.68,693.87v-5.64h23.81v-48.67h7.15v54.31H222.68z"/>
		<path d="M268.23,639.56h7.07v54.31h-7.07V639.56z"/>
		<path d="M303.96,690.18c0-5.04,0.64-9.92,1.92-14.63l7.33-1.39c-1.45,4.99-2.18,10.09-2.18,15.31c0,11.06,4.19,16.59,12.56,16.59
			c7.5,0,11.25-5.22,11.25-15.65v-28.14h7.11v14.03c0,4.39,0.51,7.54,1.54,9.44c1.08,2.03,2.9,3.05,5.45,3.05
			c4.94,0,7.41-4.14,7.41-12.41v-17.19h6.85v19.75c0,3.89,0.83,6.45,2.48,7.67c1.43,1.08,4.35,1.62,8.76,1.62h2.44
			c0.43-3.51,0.64-7.07,0.64-10.68c0-7.67-0.85-14.76-2.56-21.25l6.96-1.24c1.83,6.92,2.75,14.21,2.75,21.85
			c0,5.47-0.44,11.12-1.32,16.96h-8.69c-4.99,0-8.65-0.45-10.98-1.35c-2.28-0.9-3.91-2.51-4.89-4.81c-0.83,2.36-2.37,4.14-4.63,5.34
			c-1.63,0.85-3.29,1.28-4.96,1.28h-0.26c-3.44,0-5.88-1.13-7.33-3.38v0.41c0,7.1-1.83,12.38-5.49,15.84
			c-3.21,2.98-7.61,4.48-13.2,4.48C310.28,711.66,303.96,704.5,303.96,690.18z"/>
		<path d="M398.14,639.56h7.07v48.67h8.5v5.64h-15.57V639.56z"/>
		<path d="M412.55,688.23h17.11v5.64h-17.11V688.23z"/>
		<path d="M428.57,688.23h17.11v5.64h-17.11V688.23z"/>
		<path d="M444.59,688.23h17.11v5.64h-17.11V688.23z"/>
		<path d="M460.62,688.23h17.11v5.64h-17.11V688.23z"/>
		<path d="M476.64,688.23h17.11v5.64h-17.11V688.23z"/>
		<path d="M492.66,688.23h17.11v5.64h-17.11V688.23z"/>
		<path d="M508.69,688.23h17.11v5.64h-17.11V688.23z"/>
		<path d="M524.71,688.23h11.25v-30.58h7.07v30.58h11.96v5.64h-30.28V688.23z M534.15,708.28c-0.8,0.83-1.77,1.24-2.9,1.24
			c-1.15,0-2.12-0.4-2.9-1.2c-0.78-0.78-1.17-1.77-1.17-2.97c0-1.13,0.39-2.08,1.17-2.86c0.78-0.8,1.74-1.2,2.9-1.2
			c1.13,0,2.09,0.39,2.9,1.17c0.8,0.78,1.2,1.74,1.2,2.9S534.95,707.47,534.15,708.28z M545.51,708.28
			c-0.78,0.83-1.73,1.24-2.86,1.24c-1.15,0-2.13-0.4-2.93-1.2c-0.8-0.8-1.2-1.79-1.2-2.97c0-1.13,0.4-2.08,1.2-2.86
			c0.8-0.8,1.78-1.2,2.93-1.2c1.13,0,2.08,0.39,2.86,1.17c0.78,0.78,1.17,1.74,1.17,2.9S546.29,707.47,545.51,708.28z"/>
		<path d="M553.9,693.87v-5.64h6.09c1.78,0,3.27,0.14,4.48,0.41c-3.81-2.41-5.72-6.75-5.72-13.01c0-5.32,1.62-9.7,4.85-13.17
			c3.49-3.76,8.29-5.64,14.41-5.64c10.98,0,16.47,5.75,16.47,17.26v19.78H553.9z M587.56,675.29c0-8.58-3.39-12.86-10.16-12.86
			c-3.56,0-6.37,1.18-8.43,3.54c-2.06,2.28-3.08,5.37-3.08,9.25c0,8.68,4.68,13.01,14.03,13.01h7.64V675.29z M568.64,649.41
			c-0.8-0.8-1.2-1.81-1.2-3.01c0-1.1,0.4-2.06,1.2-2.86c0.78-0.8,1.74-1.2,2.9-1.2c1.13,0,2.09,0.39,2.9,1.17
			c0.8,0.8,1.2,1.77,1.2,2.9c0,1.15-0.4,2.14-1.2,2.97c-0.8,0.8-1.77,1.2-2.9,1.2C570.39,650.58,569.42,650.19,568.64,649.41z
			 M580,649.41c-0.8-0.8-1.2-1.81-1.2-3.01c0-1.1,0.4-2.06,1.2-2.86c0.8-0.8,1.78-1.2,2.93-1.2c1.13,0,2.08,0.39,2.86,1.17
			c0.78,0.8,1.17,1.77,1.17,2.9c0,1.18-0.39,2.17-1.17,2.97c-0.78,0.8-1.73,1.2-2.86,1.2C581.78,650.58,580.81,650.19,580,649.41z"
			/>
		<path d="M649.7,693.87c-9.53,0-16.47-1.91-20.84-5.72c-4.14-3.61-6.21-9.18-6.21-16.7c0-4.86,0.85-9.13,2.56-12.79l7.52-1.32
			c-1.96,3.99-2.93,8.41-2.93,13.28c0,6.12,1.44,10.52,4.33,13.2c3.18,2.93,8.65,4.4,16.4,4.4h13.13v-30.58h7.07v36.22H649.7z
			 M640.22,649.41c-0.78-0.8-1.17-1.81-1.17-3.01c0-1.1,0.39-2.06,1.17-2.86c0.8-0.8,1.78-1.2,2.93-1.2c1.13,0,2.08,0.39,2.86,1.17
			c0.8,0.8,1.2,1.77,1.2,2.9c0,1.15-0.4,2.14-1.2,2.97c-0.8,0.8-1.76,1.2-2.86,1.2C642,650.58,641.02,650.19,640.22,649.41z
			 M651.62,649.41c-0.83-0.8-1.24-1.81-1.24-3.01c0-1.1,0.41-2.06,1.24-2.86c0.8-0.8,1.78-1.2,2.93-1.2c1.13,0,2.07,0.39,2.82,1.17
			c0.78,0.8,1.17,1.77,1.17,2.9c0,1.18-0.39,2.17-1.17,2.97c-0.78,0.8-1.72,1.2-2.82,1.2C653.37,650.58,652.39,650.19,651.62,649.41
			z"/>
		<path d="M684.75,639.56h7.07v54.31h-7.07V639.56z"/>
		<path d="M723.99,693.87v0.38c0,12.94-5.96,19.41-17.87,19.41c-2.63,0-5.3-0.35-8.01-1.05l0.75-5.87c2.38,0.88,4.98,1.32,7.79,1.32
			c3.41,0,5.92-0.94,7.52-2.82c1.83-2.08,2.75-5.53,2.75-10.34v-37.24h7.07v30.58h9.33c2.86,0,4.88-0.74,6.06-2.22
			c1.25-1.58,1.88-4.35,1.88-8.31v-15.42h7.07v14.03c0,4.59,0.31,7.66,0.94,9.21c0.88,2.18,2.72,3.27,5.53,3.27
			c5.29,0,7.94-4.14,7.94-12.41v-17.19h6.88v19.75c0,3.91,0.83,6.48,2.48,7.71c1.45,1.05,4.38,1.58,8.76,1.58h2.52
			c0.43-3.51,0.64-7.07,0.64-10.68c0-7.67-0.85-14.76-2.56-21.25l6.85-1.24c1.86,6.6,2.78,13.88,2.78,21.85
			c0,5.79-0.41,11.45-1.24,16.96h-8.76c-4.92,0-8.49-0.43-10.72-1.28c-2.33-0.88-4.05-2.51-5.15-4.89c-1.71,4.46-5.58,6.7-11.62,6.7
			c-5.42,0-8.74-2.21-9.97-6.62c-1.48,4.06-4.92,6.09-10.31,6.09H723.99z M757.31,649.41c-0.8-0.8-1.2-1.81-1.2-3.01
			c0-1.1,0.4-2.06,1.2-2.86c0.78-0.8,1.74-1.2,2.9-1.2c1.15,0,2.12,0.39,2.9,1.17s1.17,1.74,1.17,2.9c0,1.18-0.39,2.17-1.17,2.97
			c-0.78,0.8-1.74,1.2-2.9,1.2C759.05,650.58,758.09,650.19,757.31,649.41z M763.1,640.27c-0.75-0.75-1.13-1.68-1.13-2.78
			c0-1.13,0.38-2.08,1.13-2.86c0.75-0.78,1.68-1.17,2.78-1.17c1.08,0,1.99,0.39,2.75,1.17c0.75,0.78,1.13,1.73,1.13,2.86
			c0,1.08-0.38,2.01-1.13,2.78c-0.75,0.75-1.67,1.13-2.75,1.13C764.78,641.4,763.86,641.02,763.1,640.27z M768.71,649.41
			c-0.8-0.8-1.2-1.81-1.2-3.01c0-1.1,0.4-2.06,1.2-2.86c0.78-0.8,1.74-1.2,2.9-1.2c1.13,0,2.08,0.39,2.86,1.17
			c0.8,0.8,1.2,1.77,1.2,2.9c0,1.15-0.4,2.14-1.2,2.97c-0.78,0.8-1.73,1.2-2.86,1.2C770.45,650.58,769.48,650.19,768.71,649.41z"/>
		<path d="M801.21,712.19l0.49-5.91c4.31,0.98,8.41,1.47,12.3,1.47c9.8,0,14.71-4.01,14.71-12.04v-1.84h-7.75
			c-13.47,0-20.2-5.98-20.2-17.94c0-5.44,1.59-9.91,4.78-13.39c3.49-3.81,8.36-5.72,14.63-5.72c5.64,0,10.81,0.9,15.5,2.71v28.7
			h8.54v5.64h-8.54v1.47c0,5.07-1.67,9.19-5,12.38c-3.94,3.76-9.74,5.64-17.42,5.64C809.28,713.35,805.27,712.96,801.21,712.19z
			 M828.7,664.23c-2.51-1.2-5.6-1.8-9.29-1.8c-3.56,0-6.37,1.17-8.42,3.5c-2.06,2.31-3.08,5.38-3.08,9.21
			c0,8.73,4.68,13.09,14.03,13.09h6.77V664.23z M809.52,646.1c2.18,0,3.96,0.12,5.34,0.38c-1.4-0.6-2.11-1.83-2.11-3.69
			c0-2.11,0.75-3.85,2.26-5.23c1.73-1.6,4.25-2.41,7.56-2.41c1.63,0,3.01,0.11,4.14,0.34l-0.68,4.29c-1.86-0.2-3.1-0.3-3.72-0.3
			c-2.86,0-4.29,1.05-4.29,3.16c0,2.31,1.99,3.46,5.98,3.46h4.18v4.4h-18.66V646.1z"/>
		<path d="M843.03,688.23h17.11v5.64h-17.11V688.23z"/>
		<path d="M859.05,688.23h17.11v5.64h-17.11V688.23z"/>
		<path d="M875.08,688.23h17.11v5.64h-17.11V688.23z"/>
		<path d="M891.1,688.23h17.11v5.64H891.1V688.23z"/>
		<path d="M907.12,688.23h17.11v5.64h-17.11V688.23z"/>
		<path d="M923.15,688.23h17.11v5.64h-17.11V688.23z"/>
		<path d="M939.17,688.23h17.11v5.64h-17.11V688.23z"/>
		<path d="M955.19,688.23h17.11v5.64h-17.11V688.23z"/>
		<path d="M971.22,688.23h17.11v5.64h-17.11V688.23z"/>
		<path d="M987.24,693.87v-5.64h6.09c1.78,0,3.27,0.14,4.48,0.41c-3.81-2.41-5.72-6.75-5.72-13.01c0-5.32,1.62-9.7,4.85-13.17
			c3.49-3.76,8.29-5.64,14.41-5.64c10.98,0,16.47,5.75,16.47,17.26v19.78H987.24z M1020.9,675.29c0-8.58-3.39-12.86-10.16-12.86
			c-3.56,0-6.37,1.18-8.43,3.54c-2.06,2.28-3.08,5.37-3.08,9.25c0,8.68,4.68,13.01,14.03,13.01h7.64V675.29z"/>
	</g>
	<g>
		<rect x="305.79" y="96.13" class="st0" width="74.78" height="417.06"/>
		<rect x="208.01" y="301.02" class="st1" width="74.78" height="212.18"/>
		<rect x="114.2" y="392.64" class="st2" width="74.78" height="120.55"/>
		<path class="st3" d="M337.72,301.62c51.07-68.7,102.75-137.4,154.43-205.49h77.21L419.8,301.62
			c52.89,72.95,158.07,211.57,158.07,211.57h-86.33L337.72,301.62z"/>
		<path class="st3" d="M618.23,96.13h145.91c97.88,0,147.13,45.59,147.13,128.28c0,86.94-55.33,132.54-142.26,132.54h-75.99v156.24
			h-74.78V96.13z M755.02,301.02c56.54,0,77.82-23.71,77.82-72.35c0-54.72-21.28-74.78-76.61-74.78h-63.22v147.13H755.02z"/>
		<path class="st3" d="M955.14,96.13h75.39v417.06h-75.39V96.13z"/>
	</g>
</g>
</svg>
