<svg width="2789" height="1880" xmlns="http://www.w3.org/2000/svg" xmlns:xlink="http://www.w3.org/1999/xlink" xml:space="preserve" overflow="hidden"><defs><clipPath id="clip0"><rect x="799" y="293" width="2789" height="1880"/></clipPath></defs><g clip-path="url(#clip0)" transform="translate(-799 -293)"><path d="M902.803 1831 840.436 1752.79 840.436 1831 819 1831 819 1673 840.436 1673 840.436 1747.44 903.045 1673 929.726 1673 862.902 1749.26 932 1831 902.803 1831Z" fill="#FFFFFF" fill-rule="evenodd"/><path d="M1043.33 1773.08 966.81 1773.08C966.107 1801.62 978.448 1815.91 1003.8 1815.91 1015.53 1815.91 1026.68 1813.65 1037.25 1809.13L1040.24 1825.77C1028.15 1830.59 1014.65 1833 999.799 1833 963.267 1833 945 1813.04 945 1773.08 945 1755.25 949.643 1740.69 958.898 1729.46 968.551 1717.83 981.502 1712 997.722 1712 1013.18 1712 1025 1716.7 1033.1 1726.13 1040.36 1734.62 1044 1745.91 1044 1760.02 1044 1764.04 1043.79 1768.41 1043.33 1773.08ZM1022.4 1758.06C1022.65 1748.66 1020.39 1741.27 1015.62 1735.9 1011.04 1730.62 1004.57 1727.96 996.195 1727.96 979.639 1727.96 970.048 1738.01 967.36 1758.03L1022.4 1758.03Z" fill="#FFFFFF" fill-rule="evenodd"/><path d="M1117.28 1840.88C1110.35 1859.58 1102.73 1872.63 1094.45 1880.09 1086.37 1887.36 1075.75 1891 1062.6 1891 1058.56 1891 1054.04 1890.54 1049 1889.63L1051.28 1870.77C1055.31 1871.99 1059.99 1872.6 1065.33 1872.6 1078.57 1872.6 1088.83 1862.98 1096.06 1843.76L1100.73 1831.01 1056.77 1714 1080.51 1714 1102.55 1774.81C1105.07 1781.87 1108.05 1791.47 1111.45 1803.66L1111.9 1803.66C1113.97 1795.69 1117.76 1783.71 1123.32 1767.69L1142.05 1714 1165 1714 1117.28 1840.88Z" fill="#FFFFFF" fill-rule="evenodd"/><path d="M1327.85 1756.73C1316.83 1766.79 1302.03 1771.8 1283.39 1771.8 1278.23 1771.8 1273.35 1771.56 1268.71 1771.1L1268.71 1831 1247 1831 1247 1673.03C1261 1672.33 1274.33 1672 1286.95 1672 1305.13 1672 1319.25 1676.19 1329.32 1684.58 1339.09 1692.73 1344 1703.94 1344 1718.19 1344 1734.15 1338.63 1746.97 1327.85 1756.73ZM1284.65 1689.87C1278.93 1689.87 1273.62 1690.02 1268.71 1690.33L1268.71 1752.62C1273.78 1753.54 1279.33 1753.99 1285.35 1753.99 1309.46 1753.99 1321.49 1742.99 1321.49 1720.96 1321.49 1700.23 1309.21 1689.87 1284.65 1689.87Z" fill="#FFFFFF" fill-rule="evenodd"/><path d="M1458.33 1773.08 1382.59 1773.08C1381.89 1801.62 1394.11 1815.91 1419.21 1815.91 1430.82 1815.91 1441.85 1813.65 1452.32 1809.13L1455.28 1825.77C1443.3 1830.59 1429.94 1833 1415.24 1833 1379.08 1833 1361 1813.04 1361 1773.08 1361 1755.25 1365.6 1740.69 1374.76 1729.46 1384.31 1717.83 1397.13 1712 1413.19 1712 1428.49 1712 1440.19 1716.7 1448.2 1726.13 1455.4 1734.62 1459 1745.91 1459 1760.02 1459.03 1764.04 1458.79 1768.41 1458.33 1773.08ZM1437.65 1758.06C1437.89 1748.66 1435.65 1741.27 1430.94 1735.9 1426.4 1730.62 1419.99 1727.96 1411.71 1727.96 1395.32 1727.96 1385.82 1738.01 1383.16 1758.03L1437.65 1758.03Z" fill="#FFFFFF" fill-rule="evenodd"/><path d="M1548.11 1733.14C1523.58 1728.78 1511.3 1745.75 1511.3 1784.02L1511.3 1831 1490 1831 1490 1714.34 1510.59 1714.34C1510.59 1723.97 1509.73 1733.2 1508.04 1742.07L1508.5 1742.07C1515.21 1720.13 1528.72 1710.2 1549 1712.27L1548.11 1733.14Z" fill="#FFFFFF" fill-rule="evenodd"/><path d="M1641.14 1677.78C1636.18 1676.01 1630.45 1675.12 1623.96 1675.12 1608 1675.12 1600.02 1685.16 1600.02 1705.19L1600.02 1714.13 1632.43 1714.13 1632.43 1730.67 1600.02 1730.67 1600.02 1831 1578.94 1831 1578.94 1730.67 1555 1730.67 1555 1714.13 1578.94 1714.13 1578.94 1705.4C1578.94 1673.78 1593.87 1658 1623.75 1658 1630.24 1658 1636.66 1658.7 1643 1660.08L1641.14 1677.78Z" fill="#FFFFFF" fill-rule="evenodd"/><path d="M1738.56 1814.96C1728.03 1826.99 1714.3 1833 1697.34 1833 1662.45 1833 1645 1813.19 1645 1773.54 1645 1755.93 1650.08 1741.4 1660.22 1729.92 1670.76 1717.98 1684.61 1712 1701.78 1712 1717.68 1712 1730.1 1716.49 1739.11 1725.43 1749.04 1735.47 1754 1750.49 1754 1770.55 1754.03 1788.43 1748.89 1803.27 1738.56 1814.96ZM1699.87 1729.55C1690.7 1729.55 1683.12 1732.91 1677.09 1739.66 1670.21 1747.23 1666.77 1757.85 1666.77 1771.46 1666.77 1800.61 1677.79 1815.2 1699.87 1815.2 1709.18 1815.2 1716.73 1811.69 1722.55 1804.64 1729.03 1796.83 1732.29 1785.84 1732.29 1771.71 1732.29 1743.59 1721.48 1729.55 1699.87 1729.55Z" fill="#FFFFFF" fill-rule="evenodd"/><path d="M1841.11 1733.14C1816.58 1728.78 1804.3 1745.75 1804.3 1784.02L1804.3 1831 1783 1831 1783 1714.34 1803.59 1714.34C1803.59 1723.97 1802.73 1733.2 1801.04 1742.07L1801.5 1742.07C1808.21 1720.13 1821.72 1710.2 1842 1712.27L1841.11 1733.14Z" fill="#FFFFFF" fill-rule="evenodd"/><path d="M2011.84 1831 2011.84 1755.98C2011.84 1738.21 2005.48 1729.32 1992.76 1729.32 1983.95 1729.32 1976.4 1733.44 1970.1 1741.72 1963.34 1750.52 1959.97 1761.79 1959.97 1775.5L1959.97 1831 1939.03 1831 1939.03 1755.98C1939.03 1738.21 1932.67 1729.32 1919.94 1729.32 1910.89 1729.32 1903.19 1733.66 1896.83 1742.3 1890.37 1751.19 1887.16 1762.25 1887.16 1775.5L1887.16 1831 1866 1831 1866 1714.05 1886.46 1714.05C1886.46 1723.91 1885.91 1732.16 1884.84 1738.76L1885.08 1739C1892.51 1721.01 1906.09 1712 1925.78 1712 1936.76 1712 1945.11 1715.21 1950.86 1721.65 1954.99 1726.33 1957.41 1731.95 1958.11 1738.54 1966 1720.86 1979.36 1712 1998.14 1712 2021.38 1712 2033 1724.8 2033 1750.36L2033 1831 2011.84 1831Z" fill="#FFFFFF" fill-rule="evenodd"/><path d="M2134.37 1830.96C2134.37 1819.88 2134.74 1812.14 2135.53 1807.7L2135.07 1807.7C2128.43 1824.57 2115.2 1833 2095.42 1833 2085.79 1833 2077.96 1830.14 2071.93 1824.41 2065.96 1818.6 2063 1811.02 2063 1801.61 2063 1789 2069.12 1779.2 2081.34 1772.17 2093.72 1765.07 2111 1761.51 2133.15 1761.51L2133.15 1756.12C2133.15 1746.59 2131.35 1739.68 2127.76 1735.38 2123.86 1730.88 2117.43 1728.62 2108.5 1728.62 2097.19 1728.62 2085.46 1731.46 2073.3 1737.09L2069.28 1720.37C2082.81 1714.8 2096.83 1712 2111.33 1712 2139.98 1712 2154.3 1725.58 2154.3 1752.77L2154.3 1797.32C2154.3 1809.62 2154.54 1820.79 2155 1830.87L2134.37 1830.87ZM2133.12 1776.34C2100.27 1776.34 2083.84 1783.74 2083.84 1798.56 2083.84 1803.77 2085.49 1808 2088.78 1811.26 2092.07 1814.7 2096.4 1816.41 2101.73 1816.41 2110.75 1816.41 2118.34 1812.51 2124.53 1804.71 2130.26 1797.38 2133.12 1788.91 2133.12 1779.29L2133.12 1776.34Z" fill="#FFFFFF" fill-rule="evenodd"/><path d="M2268.94 1831 2268.94 1755.74C2268.94 1738.12 2262.31 1729.32 2249.06 1729.32 2239.55 1729.32 2231.65 1733.69 2225.39 1742.42 2219.13 1751.16 2216.03 1762.03 2216.03 1775.04L2216.03 1831 2195 1831 2195 1714.05 2215.36 1714.05C2215.36 1724.22 2214.75 1732.46 2213.54 1738.76L2213.99 1738.76C2221.53 1720.92 2235.18 1712 2254.9 1712 2278.3 1712 2290 1724.46 2290 1749.32L2290 1831 2268.94 1831Z" fill="#FFFFFF" fill-rule="evenodd"/><path d="M2405 1826.66C2394.51 1830.89 2382.9 1833 2370.15 1833 2336.07 1833 2319 1814.13 2319 1776.42 2319 1756.91 2323.79 1741.44 2333.33 1729.98 2343.36 1718 2357.53 1712 2375.89 1712 2386.34 1712 2395.88 1713.65 2404.45 1716.96L2400.55 1735.07C2391.62 1731.6 2382.75 1729.89 2373.94 1729.89 2363.63 1729.89 2355.55 1733.96 2349.73 1742.11 2344.15 1749.95 2341.35 1760.43 2341.35 1773.57 2341.35 1800.99 2352.35 1814.71 2374.36 1814.71 2384.51 1814.71 2393.63 1812.78 2401.65 1808.95L2405 1826.66Z" fill="#FFFFFF" fill-rule="evenodd"/><path d="M2519.33 1773.08 2442.81 1773.08C2442.11 1801.62 2454.45 1815.91 2479.8 1815.91 2491.53 1815.91 2502.68 1813.65 2513.25 1809.13L2516.24 1825.77C2504.14 1830.59 2490.64 1833 2475.8 1833 2439.27 1833 2421 1813.04 2421 1773.08 2421 1755.25 2425.64 1740.69 2434.9 1729.46 2444.55 1717.83 2457.5 1712 2473.72 1712 2489.18 1712 2501 1716.7 2509.09 1726.13 2516.36 1734.62 2520 1745.91 2520 1760.02 2520.03 1764.04 2519.78 1768.41 2519.33 1773.08ZM2498.43 1758.06C2498.68 1748.66 2496.39 1741.27 2491.65 1735.9 2487.07 1730.62 2480.59 1727.96 2472.22 1727.96 2455.67 1727.96 2446.08 1738.01 2443.39 1758.03L2498.43 1758.03Z" fill="#FFFFFF" fill-rule="evenodd"/><path d="M2611 1831 2611 1673 2632 1673 2632 1831 2611 1831Z" fill="#FFFFFF" fill-rule="evenodd"/><path d="M2745.92 1831 2745.92 1755.74C2745.92 1738.12 2739.29 1729.32 2726.05 1729.32 2716.54 1729.32 2708.64 1733.69 2702.38 1742.42 2696.12 1751.16 2693.02 1762.03 2693.02 1775.04L2693.02 1831 2672 1831 2672 1714.05 2692.35 1714.05C2692.35 1724.22 2691.75 1732.46 2690.53 1738.76L2690.99 1738.76C2698.52 1720.92 2712.16 1712 2731.91 1712 2755.3 1712 2767 1724.46 2767 1749.32L2767 1831 2745.92 1831Z" fill="#FFFFFF" fill-rule="evenodd"/><path d="M2877.43 1830.96C2877.43 1821.2 2878.04 1813.33 2879.27 1807.28L2878.81 1807.03C2871.5 1824.34 2858.33 1833 2839.32 1833 2825.17 1833 2814.33 1828.14 2806.87 1818.38 2799.62 1808.92 2796 1795.54 2796 1778.24 2796 1757.96 2801.5 1742 2812.52 1730.32 2823.39 1718.74 2838.13 1712.93 2856.76 1712.93 2862.14 1712.93 2868.77 1713.33 2876.63 1714.09L2876.63 1660 2898 1660 2898 1830.96 2877.43 1830.96ZM2876.6 1732.15C2869.2 1730.39 2862.29 1729.5 2855.81 1729.5 2830.94 1729.5 2818.51 1745.13 2818.51 1776.39 2818.51 1802.63 2827.16 1815.73 2844.48 1815.73 2854.4 1815.73 2862.41 1810.77 2868.49 1800.86 2873.87 1792.17 2876.57 1782.13 2876.57 1770.79L2876.57 1732.15Z" fill="#FFFFFF" fill-rule="evenodd"/><path d="M2957.91 1687.45C2955.18 1690.03 2951.88 1691.34 2948 1691.34 2944.12 1691.34 2940.82 1690.03 2938.09 1687.45 2935.36 1684.86 2934 1681.64 2934 1677.84 2934 1673.95 2935.36 1670.66 2938.09 1668.01 2940.82 1665.34 2944.12 1664 2948 1664 2951.88 1664 2955.18 1665.34 2957.91 1668.01 2960.64 1670.69 2962 1673.98 2962 1677.84 2962.03 1681.58 2960.67 1684.77 2957.91 1687.45ZM2937.52 1831 2937.52 1714.55 2958.48 1714.55 2958.48 1831 2937.52 1831Z" fill="#FFFFFF" fill-rule="evenodd"/><path d="M3074 1826.66C3063.51 1830.89 3051.9 1833 3039.16 1833 3005.07 1833 2988 1814.13 2988 1776.42 2988 1756.91 2992.79 1741.44 3002.33 1729.98 3012.36 1718 3026.53 1712 3044.89 1712 3055.34 1712 3064.89 1713.65 3073.45 1716.96L3069.55 1735.07C3060.62 1731.6 3051.75 1729.89 3042.94 1729.89 3032.63 1729.89 3024.55 1733.96 3018.73 1742.11 3013.15 1749.95 3010.35 1760.43 3010.35 1773.57 3010.35 1800.99 3021.35 1814.71 3043.36 1814.71 3053.51 1814.71 3062.63 1812.78 3070.65 1808.95L3074 1826.66Z" fill="#FFFFFF" fill-rule="evenodd"/><path d="M3162.35 1830.96C3162.35 1819.88 3162.71 1812.14 3163.5 1807.7L3163.05 1807.7C3156.41 1824.57 3143.18 1833 3123.41 1833 3113.79 1833 3105.96 1830.14 3099.93 1824.41 3093.95 1818.6 3091 1811.02 3091 1801.61 3091 1789 3097.12 1779.2 3109.34 1772.17 3121.71 1765.07 3138.98 1761.51 3161.13 1761.51L3161.13 1756.12C3161.13 1746.59 3159.33 1739.68 3155.74 1735.38 3151.84 1730.88 3145.44 1728.62 3136.48 1728.62 3125.18 1728.62 3113.45 1731.46 3101.3 1737.09L3097.28 1720.37C3110.8 1714.8 3124.81 1712 3139.32 1712 3167.95 1712 3182.3 1725.58 3182.3 1752.77L3182.3 1797.32C3182.3 1809.62 3182.54 1820.79 3183 1830.87L3162.35 1830.87ZM3161.1 1776.34C3128.26 1776.34 3111.84 1783.74 3111.84 1798.56 3111.84 1803.77 3113.48 1808 3116.77 1811.26 3120.06 1814.7 3124.36 1816.41 3129.72 1816.41 3138.74 1816.41 3146.32 1812.51 3152.54 1804.71 3158.26 1797.38 3161.13 1788.91 3161.13 1779.29L3161.13 1776.34Z" fill="#FFFFFF" fill-rule="evenodd"/><path d="M3282 1830.47C3274.87 1832.15 3267 1833 3258.39 1833 3246.57 1833 3238.37 1830.32 3233.74 1824.99 3229.27 1819.88 3227.07 1810.9 3227.07 1798.09L3227.07 1731.12 3203 1731.12 3203 1714.62 3227.07 1714.62 3227.07 1676.84 3248.26 1671 3248.26 1714.62 3281.08 1714.62 3281.08 1731.12 3248.26 1731.12 3248.26 1790.66C3248.26 1800.19 3249.45 1806.64 3251.84 1810.02 3254.14 1813.37 3258.55 1815.04 3265.1 1815.04 3270.46 1815.04 3275.42 1814.4 3279.95 1813.09L3282 1830.47Z" fill="#FFFFFF" fill-rule="evenodd"/><path d="M3392.56 1814.96C3382.03 1826.99 3368.3 1833 3351.34 1833 3316.45 1833 3299 1813.19 3299 1773.54 3299 1755.93 3304.08 1741.4 3314.22 1729.92 3324.76 1717.98 3338.61 1712 3355.78 1712 3371.65 1712 3384.1 1716.49 3393.11 1725.43 3403.04 1735.47 3408 1750.49 3408 1770.55 3408.03 1788.43 3402.89 1803.27 3392.56 1814.96ZM3353.87 1729.55C3344.7 1729.55 3337.12 1732.91 3331.06 1739.66 3324.18 1747.23 3320.77 1757.85 3320.77 1771.46 3320.77 1800.61 3331.79 1815.2 3353.87 1815.2 3363.18 1815.2 3370.73 1811.69 3376.55 1804.64 3383.03 1796.83 3386.29 1785.84 3386.29 1771.71 3386.26 1743.59 3375.45 1729.55 3353.87 1729.55Z" fill="#FFFFFF" fill-rule="evenodd"/><path d="M3494.06 1733.14C3469.97 1728.78 3457.92 1745.75 3457.92 1784.02L3457.92 1831 3437 1831 3437 1714.34 3457.25 1714.34C3457.25 1723.97 3456.4 1733.2 3454.74 1742.07L3455.2 1742.07C3461.78 1720.13 3475.05 1710.2 3495 1712.27L3494.06 1733.14Z" fill="#FFFFFF" fill-rule="evenodd"/><path d="M3574.77 1822.44C3565.78 1829.49 3553.82 1833 3538.92 1833 3528.72 1833 3520.13 1831.99 3513.12 1830.01L3515.07 1811.17C3522.68 1814.32 3531.24 1815.88 3540.74 1815.88 3548.27 1815.88 3554.37 1814.26 3559.01 1811.05 3563.66 1807.85 3565.96 1803.48 3565.96 1797.96 3565.96 1792.22 3563.14 1787.79 3557.53 1784.65 3555.46 1783.58 3549.3 1781.35 3539.04 1777.99 3530.51 1775.31 3524.32 1772.16 3520.44 1768.59 3514.79 1763.46 3512 1756.26 3512 1747.01 3512 1736.6 3515.85 1728.27 3523.53 1721.98 3531.82 1715.33 3543.44 1712 3558.35 1712 3565.51 1712 3572.95 1712.76 3580.72 1714.29L3579.11 1731.75C3571.58 1729.37 3563.99 1728.18 3556.37 1728.18 3541.23 1728.18 3533.67 1733.73 3533.67 1744.81 3533.67 1750.49 3536.52 1754.92 3542.23 1758.12 3544.35 1759.34 3550.58 1761.63 3560.84 1765.02 3578.96 1771.07 3588 1781.29 3588 1795.67 3588 1806.53 3583.6 1815.48 3574.77 1822.44Z" fill="#FFFFFF" fill-rule="evenodd"/><path d="M810 2095.2C821.288 2095.2 830.598 2095.59 837.931 2096.35 829.777 2092.92 825.7 2086.16 825.7 2076.03 825.7 2065.99 829.199 2057.77 836.227 2051.4 844.473 2043.79 856.369 2040 871.947 2040 878.276 2040 884.909 2040.58 891.846 2041.7L889.229 2058.93C882.596 2057.71 876.116 2057.11 869.787 2057.11 854.818 2057.11 847.363 2063.08 847.363 2075.03 847.363 2088.5 857.891 2095.23 878.945 2095.23L900 2095.23 900 2112 810.061 2112 810.061 2095.2Z" fill="#FFFFFF" fill-rule="evenodd"/><path d="M941 1947 963 1947 963 2112 941 2112 941 1947Z" fill="#FFFFFF" fill-rule="evenodd"/><path d="M997 2094.83 1072.47 2094.83C1072.16 2073.21 1067.4 2056.19 1058.24 2043.74 1048.89 2031.13 1033.89 2021.66 1013.22 2015.33L1018.62 1997C1044.74 2005.1 1063.7 2016.91 1075.49 2032.5 1087.83 2048.85 1094 2071.44 1094 2100.31L1094 2112 997.03 2112 997.03 2094.83Z" fill="#FFFFFF" fill-rule="evenodd"/><path d="M1177.9 2073.93 1156.21 2073.93 1119 1948.97 1140.46 1946 1177.9 2073.93ZM1129.04 2112 1129.04 2094.9 1201.3 2094.9 1201.3 1947.36 1223 1947.36 1223 2112 1129.04 2112Z" fill="#FFFFFF" fill-rule="evenodd"/><path d="M1268 1947 1289 1947 1289 2112 1268 2112 1268 1947Z" fill="#FFFFFF" fill-rule="evenodd"/><path d="M1376 2101.31C1376 2085.91 1377.95 2071 1381.85 2056.61L1404.19 2052.36C1399.77 2067.61 1397.55 2083.19 1397.55 2099.14 1397.55 2132.93 1410.32 2149.83 1435.83 2149.83 1458.69 2149.83 1470.12 2133.88 1470.12 2102.01L1470.12 2016.03 1491.79 2016.03 1491.79 2058.9C1491.79 2072.31 1493.35 2081.94 1496.49 2087.74 1499.78 2093.94 1505.32 2097.06 1513.1 2097.06 1528.15 2097.06 1535.68 2084.41 1535.68 2059.14L1535.68 2006.62 1556.56 2006.62 1556.56 2066.96C1556.56 2078.85 1559.09 2086.67 1564.12 2090.4 1568.48 2093.7 1577.38 2095.35 1590.82 2095.35L1598.26 2095.35C1599.57 2084.62 1600.21 2073.75 1600.21 2062.72 1600.21 2039.28 1597.62 2017.62 1592.4 1997.79L1613.62 1994C1619.2 2015.14 1622 2037.42 1622 2060.76 1622 2077.48 1620.66 2094.74 1617.98 2112.58L1591.49 2112.58C1576.28 2112.58 1565.13 2111.21 1558.02 2108.46 1551.07 2105.71 1546.11 2100.79 1543.12 2093.76 1540.59 2100.97 1535.9 2106.41 1529.01 2110.08 1524.04 2112.67 1518.98 2113.99 1513.89 2113.99L1513.1 2113.99C1502.61 2113.99 1495.17 2110.54 1490.76 2103.66L1490.76 2104.91C1490.76 2126.61 1485.18 2142.74 1474.02 2153.31 1464.24 2162.42 1450.83 2167 1433.79 2167 1395.26 2166.94 1376 2145.06 1376 2101.31Z" fill="#FFFFFF" fill-rule="evenodd"/><path d="M1663 1947 1684.8 1947 1684.8 2094.87 1711 2094.87 1711 2112 1663 2112 1663 1947Z" fill="#FFFFFF" fill-rule="evenodd"/><path d="M1707 2095 1759 2095 1759 2112 1707 2112 1707 2095Z" fill="#FFFFFF" fill-rule="evenodd"/><path d="M1756 2095 1808 2095 1808 2112 1756 2112 1756 2095Z" fill="#FFFFFF" fill-rule="evenodd"/><path d="M1805 2095 1857 2095 1857 2112 1805 2112 1805 2095Z" fill="#FFFFFF" fill-rule="evenodd"/><path d="M1853 2095 1905 2095 1905 2112 1853 2112 1853 2095Z" fill="#FFFFFF" fill-rule="evenodd"/><path d="M1902 2095 1954 2095 1954 2112 1902 2112 1902 2095Z" fill="#FFFFFF" fill-rule="evenodd"/><path d="M1951 2095 2003 2095 2003 2112 1951 2112 1951 2095Z" fill="#FFFFFF" fill-rule="evenodd"/><path d="M2000 2095 2052 2095 2052 2112 2000 2112 2000 2095Z" fill="#FFFFFF" fill-rule="evenodd"/><path d="M2048 2095.15 2082.55 2095.15 2082.55 2002 2104.27 2002 2104.27 2095.15 2141 2095.15 2141 2112.33 2048 2112.33 2048 2095.15ZM2076.99 2156.22C2074.54 2158.75 2071.56 2160 2068.09 2160 2064.55 2160 2061.58 2158.78 2059.18 2156.34 2056.78 2153.97 2055.59 2150.95 2055.59 2147.3 2055.59 2143.86 2056.78 2140.96 2059.18 2138.59 2061.58 2136.15 2064.52 2134.93 2068.09 2134.93 2071.56 2134.93 2074.51 2136.12 2076.99 2138.49 2079.45 2140.87 2080.68 2143.8 2080.68 2147.33 2080.68 2150.86 2079.45 2153.76 2076.99 2156.22ZM2111.88 2156.22C2109.49 2158.75 2106.57 2160 2103.1 2160 2099.57 2160 2096.56 2158.78 2094.1 2156.34 2091.64 2153.91 2090.42 2150.89 2090.42 2147.3 2090.42 2143.86 2091.64 2140.96 2094.1 2138.59 2096.56 2136.15 2099.57 2134.93 2103.1 2134.93 2106.57 2134.93 2109.49 2136.12 2111.88 2138.49 2114.28 2140.87 2115.48 2143.8 2115.48 2147.33 2115.48 2150.86 2114.28 2153.76 2111.88 2156.22Z" fill="#FFFFFF" fill-rule="evenodd"/><path d="M2137 2112 2137 2094.82 2155.61 2094.82C2161.05 2094.82 2165.6 2095.24 2169.3 2096.07 2157.66 2088.72 2151.82 2075.5 2151.82 2056.43 2151.82 2040.22 2156.77 2026.87 2166.64 2016.3 2177.3 2004.84 2191.97 1999.12 2210.67 1999.12 2244.22 1999.12 2261 2016.64 2261 2051.7L2261 2111.97 2137 2111.97ZM2239.85 2055.39C2239.85 2029.25 2229.5 2016.21 2208.81 2016.21 2197.93 2016.21 2189.34 2019.8 2183.05 2027 2176.75 2033.94 2173.64 2043.36 2173.64 2055.18 2173.64 2081.62 2187.94 2094.82 2216.51 2094.82L2239.85 2094.82 2239.85 2055.39ZM2182.04 1976.54C2179.6 1974.1 2178.37 1971.03 2178.37 1967.37 2178.37 1964.02 2179.6 1961.09 2182.04 1958.66 2184.42 1956.22 2187.36 1955 2190.9 1955 2194.36 1955 2197.29 1956.19 2199.76 1958.56 2202.21 1961 2203.43 1963.96 2203.43 1967.4 2203.43 1970.9 2202.21 1973.92 2199.76 1976.45 2197.32 1978.89 2194.36 1980.11 2190.9 1980.11 2187.39 1980.11 2184.42 1978.92 2182.04 1976.54ZM2216.75 1976.54C2214.31 1974.1 2213.09 1971.03 2213.09 1967.37 2213.09 1964.02 2214.31 1961.09 2216.75 1958.66 2219.2 1956.22 2222.19 1955 2225.71 1955 2229.16 1955 2232.06 1956.19 2234.45 1958.56 2236.83 1961 2238.02 1963.96 2238.02 1967.4 2238.02 1971 2236.83 1974.01 2234.45 1976.45 2232.06 1978.89 2229.16 1980.11 2225.71 1980.11 2222.19 1980.11 2219.23 1978.92 2216.75 1976.54Z" fill="#FFFFFF" fill-rule="evenodd"/><path d="M2429.14 2112C2400.2 2112 2379.13 2106.18 2365.86 2094.57 2353.29 2083.57 2347 2066.6 2347 2043.69 2347 2028.88 2349.58 2015.87 2354.77 2004.72L2377.61 2000.7C2371.66 2012.86 2368.71 2026.32 2368.71 2041.16 2368.71 2059.81 2373.08 2073.21 2381.86 2081.38 2391.52 2090.31 2408.13 2094.79 2431.66 2094.79L2471.53 2094.79 2471.53 2001.62 2493 2001.62 2493 2111.97 2429.14 2111.97ZM2400.35 1976.54C2397.99 1974.1 2396.8 1971.03 2396.8 1967.37 2396.8 1964.02 2397.99 1961.09 2400.35 1958.66 2402.78 1956.22 2405.76 1955 2409.25 1955 2412.68 1955 2415.57 1956.19 2417.94 1958.56 2420.36 1961 2421.58 1963.96 2421.58 1967.4 2421.58 1970.9 2420.36 1973.92 2417.94 1976.45 2415.51 1978.89 2412.59 1980.11 2409.25 1980.11 2405.76 1980.11 2402.78 1978.92 2400.35 1976.54ZM2434.97 1976.54C2432.45 1974.1 2431.21 1971.03 2431.21 1967.37 2431.21 1964.02 2432.45 1961.09 2434.97 1958.66 2437.4 1956.22 2440.38 1955 2443.87 1955 2447.3 1955 2450.15 1956.19 2452.43 1958.56 2454.8 1961 2455.98 1963.96 2455.98 1967.4 2455.98 1971 2454.8 1974.01 2452.43 1976.45 2450.06 1978.89 2447.21 1980.11 2443.87 1980.11 2440.28 1980.11 2437.31 1978.92 2434.97 1976.54Z" fill="#FFFFFF" fill-rule="evenodd"/><path d="M2536 1947 2557 1947 2557 2112 2536 2112 2536 1947Z" fill="#FFFFFF" fill-rule="evenodd"/><path d="M2654.77 2112.54 2654.77 2113.71C2654.77 2153.24 2636.63 2173 2600.38 2173 2592.38 2173 2584.25 2171.93 2576 2169.79L2578.28 2151.86C2585.53 2154.55 2593.44 2155.89 2601.99 2155.89 2612.37 2155.89 2620.01 2153.02 2624.88 2147.28 2630.45 2140.92 2633.25 2130.39 2633.25 2115.69L2633.25 2001.93 2654.77 2001.93 2654.77 2095.35 2683.17 2095.35C2691.87 2095.35 2698.02 2093.08 2701.61 2088.56 2705.42 2083.74 2707.33 2075.27 2707.33 2063.18L2707.33 2016.07 2728.85 2016.07 2728.85 2058.93C2728.85 2072.95 2729.8 2082.33 2731.71 2087.07 2734.39 2093.73 2739.99 2097.06 2748.55 2097.06 2764.65 2097.06 2772.71 2084.41 2772.71 2059.15L2772.71 2006.63 2793.65 2006.63 2793.65 2066.97C2793.65 2078.91 2796.18 2086.76 2801.2 2090.52 2805.61 2093.73 2814.53 2095.35 2827.86 2095.35L2835.53 2095.35C2836.84 2084.62 2837.48 2073.75 2837.48 2062.72 2837.48 2039.29 2834.89 2017.63 2829.69 1997.8L2850.54 1994.02C2856.2 2014.18 2859 2036.42 2859 2060.76 2859 2078.45 2857.75 2095.74 2855.23 2112.57L2828.56 2112.57C2813.59 2112.57 2802.72 2111.26 2795.94 2108.66 2788.84 2105.98 2783.61 2101 2780.26 2093.73 2775.06 2107.35 2763.28 2114.19 2744.89 2114.19 2728.4 2114.19 2718.29 2107.44 2714.55 2093.97 2710.04 2106.37 2699.57 2112.57 2683.17 2112.57L2654.77 2112.57ZM2756.18 1976.73C2753.75 1974.28 2752.53 1971.2 2752.53 1967.53 2752.53 1964.17 2753.75 1961.24 2756.18 1958.79 2758.56 1956.35 2761.48 1955.13 2765.01 1955.13 2768.51 1955.13 2771.46 1956.32 2773.84 1958.7 2776.21 1961.08 2777.4 1964.02 2777.4 1967.56 2777.4 1971.17 2776.21 1974.19 2773.84 1976.63 2771.46 1979.08 2768.54 1980.3 2765.01 1980.3 2761.48 1980.3 2758.56 1979.11 2756.18 1976.73ZM2773.81 1948.8C2771.53 1946.51 2770.37 1943.67 2770.37 1940.31 2770.37 1936.86 2771.53 1933.96 2773.81 1931.57 2776.09 1929.19 2778.92 1928 2782.27 1928 2785.56 1928 2788.33 1929.19 2790.64 1931.57 2792.92 1933.96 2794.08 1936.86 2794.08 1940.31 2794.08 1943.61 2792.92 1946.45 2790.64 1948.8 2788.36 1951.09 2785.56 1952.26 2782.27 1952.26 2778.92 1952.26 2776.12 1951.09 2773.81 1948.8ZM2790.88 1976.73C2788.45 1974.28 2787.23 1971.2 2787.23 1967.53 2787.23 1964.17 2788.45 1961.24 2790.88 1958.79 2793.26 1956.35 2796.18 1955.13 2799.71 1955.13 2803.15 1955.13 2806.04 1956.32 2808.41 1958.7 2810.85 1961.15 2812.07 1964.11 2812.07 1967.56 2812.07 1971.07 2810.85 1974.1 2808.41 1976.63 2806.04 1979.08 2803.15 1980.3 2799.71 1980.3 2796.18 1980.3 2793.23 1979.11 2790.88 1976.73Z" fill="#FFFFFF" fill-rule="evenodd"/><path d="M2890.37 2168.44 2891.86 2150.46C2904.95 2153.44 2917.4 2154.93 2929.22 2154.93 2958.99 2154.93 2973.91 2142.73 2973.91 2118.29L2973.91 2112.69 2950.37 2112.69C2909.45 2112.69 2889 2094.49 2889 2058.1 2889 2041.54 2893.83 2027.94 2903.52 2017.35 2914.12 2005.76 2928.92 1999.94 2947.97 1999.94 2965.1 1999.94 2980.81 2002.68 2995.06 2008.19L2995.06 2095.53 3021 2095.53 3021 2112.69 2995.06 2112.69 2995.06 2117.16C2995.06 2132.59 2989.98 2145.13 2979.87 2154.84 2967.9 2166.28 2950.28 2172 2926.94 2172 2914.88 2171.97 2902.7 2170.78 2890.37 2168.44ZM2973.88 2022.49C2966.26 2018.84 2956.87 2017.02 2945.66 2017.02 2934.84 2017.02 2926.31 2020.58 2920.08 2027.67 2913.82 2034.7 2910.72 2044.04 2910.72 2055.69 2910.72 2082.26 2924.94 2095.53 2953.34 2095.53L2973.91 2095.53 2973.91 2022.49ZM2915.61 1967.32C2922.24 1967.32 2927.64 1967.69 2931.83 1968.48 2927.58 1966.65 2925.43 1962.91 2925.43 1957.25 2925.43 1950.83 2927.7 1945.53 2932.29 1941.33 2937.55 1936.46 2945.2 1934 2955.26 1934 2960.21 1934 2964.4 1934.33 2967.84 1935.03L2965.77 1948.09C2960.12 1947.48 2956.35 1947.18 2954.47 1947.18 2945.78 1947.18 2941.44 1950.37 2941.44 1956.79 2941.44 1963.82 2947.48 1967.32 2959.6 1967.32L2972.3 1967.32 2972.3 1980.71 2915.61 1980.71 2915.61 1967.32Z" fill="#FFFFFF" fill-rule="evenodd"/><path d="M3017 2095 3070 2095 3070 2112 3017 2112 3017 2095Z" fill="#FFFFFF" fill-rule="evenodd"/><path d="M3066 2095 3118 2095 3118 2112 3066 2112 3066 2095Z" fill="#FFFFFF" fill-rule="evenodd"/><path d="M3115 2095 3167 2095 3167 2112 3115 2112 3115 2095Z" fill="#FFFFFF" fill-rule="evenodd"/><path d="M3164 2095 3216 2095 3216 2112 3164 2112 3164 2095Z" fill="#FFFFFF" fill-rule="evenodd"/><path d="M3213 2095 3265 2095 3265 2112 3213 2112 3213 2095Z" fill="#FFFFFF" fill-rule="evenodd"/><path d="M3261 2095 3313 2095 3313 2112 3261 2112 3261 2095Z" fill="#FFFFFF" fill-rule="evenodd"/><path d="M3310 2095 3362 2095 3362 2112 3310 2112 3310 2095Z" fill="#FFFFFF" fill-rule="evenodd"/><path d="M3359 2095 3411 2095 3411 2112 3359 2112 3359 2095Z" fill="#FFFFFF" fill-rule="evenodd"/><path d="M3408 2095 3460 2095 3460 2112 3408 2112 3408 2095Z" fill="#FFFFFF" fill-rule="evenodd"/><path d="M3456 2112 3456 2094.95 3474.61 2094.95C3480.05 2094.95 3484.6 2095.37 3488.3 2096.19 3476.66 2088.9 3470.82 2075.79 3470.82 2056.86 3470.82 2040.78 3475.77 2027.54 3485.64 2017.05 3496.3 2005.68 3510.97 2000 3529.67 2000 3563.22 2000 3580 2017.38 3580 2052.18L3580 2111.97 3456 2111.97ZM3558.85 2055.83C3558.85 2029.9 3548.5 2016.96 3527.81 2016.96 3516.93 2016.96 3508.34 2020.53 3502.05 2027.66 3495.75 2034.55 3492.64 2043.89 3492.64 2055.62 3492.64 2081.86 3506.94 2094.95 3535.51 2094.95L3558.85 2094.95 3558.85 2055.83Z" fill="#FFFFFF" fill-rule="evenodd"/><path d="M1382 293 1610 293 1610 1562 1382 1562Z" fill="#F2F2F2" fill-rule="evenodd"/><path d="M1084 916 1312 916 1312 1562 1084 1562Z" fill="#E6E6E6" fill-rule="evenodd"/><path d="M799 1195 1026 1195 1026 1562 799 1562Z" fill="#CCCCCC" fill-rule="evenodd"/><path d="M1479 918.25C1634.45 709.215 1791.76 500.179 1949.07 293L2184.1 293 1728.85 918.25C1889.84 1140.22 2210 1562 2210 1562L1947.22 1562 1479 918.25Z" fill="#0183BD" fill-rule="evenodd"/><path d="M2333 293 2777.14 293C3075.09 293 3225 431.718 3225 683.321 3225 947.856 3056.58 1086.6 2791.97 1086.6L2560.66 1086.6 2560.66 1562 2333.03 1562 2333.03 293ZM2749.38 916.424C2921.49 916.424 2986.26 844.281 2986.26 696.283 2986.26 529.785 2921.49 468.748 2753.07 468.748L2560.63 468.748 2560.63 916.424 2749.38 916.424Z" fill="#0183BD" fill-rule="evenodd"/><path d="M3359 293 3588 293 3588 1562 3359 1562 3359 293Z" fill="#0183BD" fill-rule="evenodd"/></g></svg>